<svg fill="#000000" width="800px" height="800px" viewBox="0 0 24 24" xmlns="http://www.w3.org/2000/svg">
 <g id="Apple">
 <path d="M14.875,6.612l.05-.05a3.229,3.229,0,0,0,.95-2.58.976.976,0,0,0-.9-.9,3.229,3.229,0,0,0-2.58.95,3.279,3.279,0,0,0-.85,1.46,4.661,4.661,0,0,0-2.69-1.75.5.5,0,1,0-.22.98,3.664,3.664,0,0,1,2.59,2.2,5.577,5.577,0,0,0-1.9-.32,5.847,5.847,0,0,0-5.84,5.84c0,2.98,2.41,8.49,5.84,8.49a5.821,5.821,0,0,0,2.4-.52.683.683,0,0,1,.56,0,5.73,5.73,0,0,0,2.38.52c3.44,0,5.85-5.51,5.85-8.49A5.838,5.838,0,0,0,14.875,6.612Z"/>
 </g>
</svg>