<?xml version="1.0" encoding="utf-8"?> 
<!-- License: MIT. Made by framework7io: https://github.com/framework7io/framework7-icons --> 
<svg fill="#000000" width="800px" height="800px" viewBox="0 0 56 56" xmlns="http://www.w3.org/2000/svg">
<path d="M 20.3391 24.8695 C 24.9847 24.8526 28.8701 23.2140 31.9110 19.8692 C 28.8025 15.9162 25.5084 14.0580 20.4574 14.0411 C 15.4233 14.0242 12.1461 15.6460 8.8688 19.9367 C 11.9602 23.2984 15.9976 24.8864 20.3391 24.8695 Z M 41.6579 33.0119 C 43.7358 32.2348 45.2224 30.4611 48.7025 30.4611 C 53.1115 30.4611 56.0000 28.9576 56.0000 26.4574 C 56.0000 20.6969 52.9257 16.7777 48.3309 16.7777 C 44.3610 16.7777 41.9451 19.1766 40.9487 22.9944 C 40.2391 25.5114 39.2424 26.6263 38.0598 27.3697 C 38.8877 28.5521 40.2726 30.9847 41.6579 33.0119 Z M 31.1337 35.0391 C 32.6710 34.6674 34.0393 34.4478 36.0159 34.4478 C 37.6374 34.4478 39.2926 34.6168 40.8806 35.0391 C 41.9956 32.6740 43.3467 30.2246 44.0394 28.8730 C 42.7390 27.9950 41.3371 26.5588 40.3239 24.4301 C 39.1751 21.9468 37.6712 20.7137 35.6779 20.7137 C 33.3298 20.7137 31.6237 22.4199 31.6237 24.7679 C 31.6237 26.5419 32.6036 28.0964 34.0393 28.8730 C 30.5083 30.2754 28.4643 32.6740 31.1337 35.0391 Z M 28.0000 52.2500 C 42.3594 52.2500 54.0000 40.6094 54.0000 26.2500 C 54.0000 11.8906 42.3594 0.2500 28.0000 0.2500 C 13.6406 0.2500 2.0000 11.8906 2.0000 26.2500 C 2.0000 40.6094 13.6406 52.2500 28.0000 52.2500 Z"/>
</svg>